<svg preserveAspectRatio="none" width="100%" height="100%" overflow="visible" style="display: block;" viewBox="0 0 20 20" fill="none" xmlns="http://www.w3.org/2000/svg">
<g id="Step Number">
<path d="M8.26074 0.75H11.7393C15.8873 0.750068 19.2499 4.1127 19.25 8.26074V11.7393C19.2499 15.8873 15.8873 19.2499 11.7393 19.25H8.26074C4.1127 19.2499 0.750068 15.8873 0.75 11.7393V8.26074C0.750068 4.1127 4.1127 0.750068 8.26074 0.75Z" fill="var(--fill-0, white)"/>
<path d="M8.26074 0.75H11.7393C15.8873 0.750068 19.2499 4.1127 19.25 8.26074V11.7393C19.2499 15.8873 15.8873 19.2499 11.7393 19.25H8.26074C4.1127 19.2499 0.750068 15.8873 0.75 11.7393V8.26074C0.750068 4.1127 4.1127 0.750068 8.26074 0.75Z" stroke="var(--stroke-0, #4A4A4A)" stroke-width="1.5"/>
<path id="Vector 1978" d="M5.45736 9.66349L8.83301 12.8361L14.5427 7.16349" stroke="var(--stroke-0, #4A4A4A)" stroke-width="1.5" stroke-linecap="round" stroke-linejoin="round"/>
</g>
</svg>
