<svg preserveAspectRatio="none" width="100%" height="100%" overflow="visible" style="display: block;" viewBox="0 0 45.5898 51.6729" fill="none" xmlns="http://www.w3.org/2000/svg">
<g id="Group 37489">
<path id="Union" d="M38.8228 30.2861V51.6729H7.58838L7.58838 30.2861H38.8228Z" fill="var(--fill-0, #6CD6AB)"/>
<path id="Ellipse 2116" d="M14.752 38.2817C14.8353 38.0344 14.9404 37.8191 15.0586 37.644C15.3453 37.2197 15.6145 37.1343 15.7578 37.1343C15.9012 37.1344 16.1705 37.2198 16.457 37.644C16.5752 37.819 16.6793 38.0345 16.7627 38.2817L14.752 38.2817Z" fill="var(--fill-0, #FADE99)" stroke="var(--stroke-0, #262626)" stroke-width="2.38889"/>
<path id="Ellipse 2118" d="M28.8262 38.2817C28.9095 38.0344 29.0146 37.8191 29.1328 37.644C29.4195 37.2197 29.6887 37.1343 29.832 37.1343C29.9755 37.1344 30.2447 37.2198 30.5313 37.644C30.6494 37.819 30.7536 38.0345 30.8369 38.2817L28.8262 38.2817Z" fill="var(--fill-0, #FADE99)" stroke="var(--stroke-0, #262626)" stroke-width="2.38889"/>
<path id="Vector 1339" d="M16.5146 42.2368C16.5146 42.2368 18.4402 45.9255 22.6625 45.9255C26.8847 45.9255 28.8103 42.2368 28.8103 42.2368" stroke="var(--stroke-0, #262626)" stroke-width="1.43333" stroke-linecap="round"/>
<path id="Union_2" d="M38.6865 21.5508C42.9446 20.1225 45.5897 19.51 45.5898 22.9424C45.5898 29.6849 35.3841 35.1514 22.7949 35.1514C10.2058 35.1513 0 29.6849 0 22.9424C0.000122961 19.4555 2.72992 20.1437 7.10742 21.6201L5.70312 0L40.709 0L38.6865 21.5508Z" fill="var(--fill-0, #262626)"/>
<path id="Rectangle 1534" d="M6.98389 19.6675C6.98389 19.6675 16.5315 22.1177 22.7261 22.1327C29.058 22.148 38.8225 19.6675 38.8225 19.6675L38.0126 26.7261C38.0126 26.7261 33.8127 31.1123 22.7261 31.1474C11.1152 31.1841 7.63014 26.7261 7.63014 26.7261L6.98389 19.6675Z" fill="url(#paint0_linear_0_5)"/>
</g>
<defs>
<linearGradient id="paint0_linear_0_5" x1="38.8225" y1="19.6675" x2="6.98389" y2="19.6675" gradientUnits="userSpaceOnUse">
<stop stop-color="#627DFF"/>
<stop offset="1" stop-color="#FF5500"/>
</linearGradient>
</defs>
</svg>
