<svg preserveAspectRatio="none" width="100%" height="100%" overflow="visible" style="display: block;" viewBox="0 0 47.7867 53.2297" fill="none" xmlns="http://www.w3.org/2000/svg">
<g id="Group 37753">
<g id="non-fiction">
<g id="Group 37489">
<path id="Union" d="M39.7782 28.9328C44.0367 27.345 46.6823 26.6643 46.6825 30.4797C46.6825 34.065 44.3464 37.324 40.5321 39.7502V53.2297H8.06437L8.06437 40.2472C3.76663 37.779 1.09269 34.3156 1.09269 30.4797C1.09297 26.6039 3.82282 27.3688 8.20011 29.0099L6.79582 4.97674L41.8017 4.97674L39.7782 28.9328Z" fill="var(--fill-0, #262626)"/>
<path id="Rectangle 1534" d="M8.07609 26.8395C8.07609 26.8395 17.6237 29.5633 23.8183 29.5799C30.1502 29.5969 39.9148 26.8395 39.9148 26.8395L39.1048 34.6861C39.1048 34.6861 34.9049 39.5619 23.8183 39.6009C12.2074 39.6418 8.72234 34.6861 8.72234 34.6861L8.07609 26.8395Z" fill="var(--fill-0, #F3C149)"/>
</g>
<ellipse id="Ellipse 292" cx="16.5907" cy="46.6344" rx="5.55457" ry="2.80484" fill="var(--fill-0, white)"/>
<path id="Intersect" d="M14.8066 43.98C15.9365 44.3547 16.751 45.4006 16.751 46.6353C16.7508 47.8697 15.9364 48.9149 14.8066 49.2895C12.6122 48.915 11.0316 47.8698 11.0313 46.6353C11.0313 45.4005 12.6119 44.3546 14.8066 43.98Z" fill="var(--fill-0, #262626)"/>
</g>
<ellipse id="Ellipse 292_2" cx="31.0888" cy="46.6345" rx="5.55457" ry="2.80484" fill="var(--fill-0, white)"/>
<path id="Intersect_2" d="M29.1611 44.0054C30.2524 44.4006 31.0312 45.4268 31.0313 46.6343C31.0313 47.8418 30.2523 48.8671 29.1611 49.2623C27.042 48.867 25.5303 47.8418 25.5303 46.6343C25.5304 45.4269 27.0419 44.4007 29.1611 44.0054Z" fill="var(--fill-0, #262626)"/>
</g>
</svg>
