<svg preserveAspectRatio="none" width="100%" height="100%" overflow="visible" style="display: block;" viewBox="0 0 45.5898 49.5802" fill="none" xmlns="http://www.w3.org/2000/svg">
<g id="Group 37489">
<g id="Group 2087329418">
<path id="Vector 1336" d="M12.2017 32.5537L20.2192 36.5625" stroke="var(--stroke-0, #262626)" stroke-width="1.14346"/>
<path id="Vector 1337" d="M35.0723 32.5537L26.6172 36.7812" stroke="var(--stroke-0, #262626)" stroke-width="1.14346"/>
<path id="Vector 1338" d="M21.7305 37.0367L12.2017 32.2722L26.495 29.4136L36.9767 31.3193L25.5421 37.0367H21.7305Z" fill="var(--fill-0, #6CD6AB)"/>
</g>
<path id="Union" d="M38.1764 30.2872V49.5802H6.98404L6.98404 30.2872L38.1764 30.2872Z" fill="var(--fill-0, #F3C149)"/>
<ellipse id="Ellipse 2116" cx="15.3313" cy="35.4726" rx="2.38889" ry="4.77778" fill="var(--fill-0, #262626)"/>
<ellipse id="Ellipse 2117" cx="29.6657" cy="35.4726" rx="2.38889" ry="4.77778" fill="var(--fill-0, #262626)"/>
<path id="Vector 1986" d="M22.5801 38.5073L6.98389 32.5537H38.1763L22.5801 38.5073Z" fill="var(--fill-0, #F3C149)"/>
<path id="Union_2" d="M38.6855 21.5518C42.944 20.1234 45.5897 19.5109 45.5898 22.9434C45.5897 29.6858 35.3839 35.1513 22.7949 35.1514C10.206 35.1513 0.000116378 29.6858 0 22.9434C0.000183127 19.4566 2.72997 20.1447 7.10742 21.6211L5.70312 0L40.709 0L38.6855 21.5518Z" fill="var(--fill-0, #262626)"/>
<path id="Rectangle 1534" d="M6.98389 19.6685C6.98389 19.6685 16.5315 22.1187 22.7261 22.1337C29.058 22.149 38.8225 19.6685 38.8225 19.6685L38.0126 26.7271C38.0126 26.7271 33.8127 31.1132 22.7261 31.1483C11.1152 31.1851 7.63014 26.7271 7.63014 26.7271L6.98389 19.6685Z" fill="var(--fill-0, #6CD6AB)"/>
</g>
</svg>
