<svg preserveAspectRatio="none" width="100%" height="100%" overflow="visible" style="display: block;" viewBox="0 0 19.4609 10.4324" fill="none" xmlns="http://www.w3.org/2000/svg">
<g id="right">
<path id="Vector" d="M19.455 5.41057C19.4628 5.34831 19.4628 5.28532 19.455 5.22307V5.17807C19.4547 5.09844 19.4394 5.01958 19.41 4.94557C19.3789 4.86137 19.3303 4.7847 19.2675 4.72057L14.7675 0.220569C14.6263 0.0793414 14.4347 0 14.235 0C14.0353 0 13.8437 0.0793414 13.7025 0.220569C13.5613 0.361797 13.4819 0.553343 13.4819 0.753069C13.4819 0.952795 13.5613 1.14434 13.7025 1.28557L16.9425 4.42807H0.75C0.551088 4.42807 0.360322 4.50709 0.21967 4.64774C0.0790176 4.78839 0 4.97916 0 5.17807C0 5.37698 0.0790176 5.56775 0.21967 5.7084C0.360322 5.84905 0.551088 5.92807 0.75 5.92807H16.9425L13.7175 9.14557C13.6472 9.21529 13.5914 9.29824 13.5533 9.38964C13.5153 9.48103 13.4957 9.57906 13.4957 9.67807C13.4957 9.77708 13.5153 9.87511 13.5533 9.9665C13.5914 10.0579 13.6472 10.1408 13.7175 10.2106C13.7872 10.2809 13.8702 10.3367 13.9616 10.3747C14.053 10.4128 14.151 10.4324 14.25 10.4324C14.349 10.4324 14.447 10.4128 14.5384 10.3747C14.6298 10.3367 14.7128 10.2809 14.7825 10.2106L19.2825 5.71057C19.343 5.64467 19.3913 5.56847 19.425 5.48557C19.4394 5.46258 19.4496 5.43717 19.455 5.41057Z" fill="var(--fill-0, #A3A3A3)"/>
</g>
</svg>
