<svg preserveAspectRatio="none" width="100%" height="100%" overflow="visible" style="display: block;" viewBox="0 0 133 50" fill="none" xmlns="http://www.w3.org/2000/svg">
<g id="logo" clip-path="url(#clip0_0_6)">
<path id="Vector" d="M133 0H0V49.6975H133V0Z" fill="var(--fill-0, #F81C1C)"/>
<path id="Vector_2" d="M30.4094 34.7877L30.3621 23.8779L25.0847 32.7525H22.4578L17.2041 24.1619V34.7877H11.832V14.2224H16.6125L23.8304 26.1025L30.8827 14.2224H35.6632L35.7105 34.7877H30.4094ZM49.3655 35.19C47.1883 35.19 45.224 34.7404 43.4964 33.8174C41.7689 32.8945 40.4199 31.6165 39.4023 30.0073C38.432 28.3744 37.9351 26.5521 37.9351 24.5169C37.9351 22.4817 38.432 20.6594 39.4023 19.0265C40.3963 17.3936 41.7689 16.1393 43.4964 15.2163C45.2477 14.2934 47.1883 13.8438 49.3655 13.8438C51.5427 13.8438 53.4833 14.2934 55.2109 15.2163C56.9621 16.1393 58.311 17.4172 59.305 19.0265C60.2989 20.6594 60.7959 22.4817 60.7959 24.5169C60.7959 26.5521 60.2989 28.3744 59.305 30.0073C58.3347 31.6402 56.9621 32.8945 55.2109 33.8174C53.4833 34.7404 51.519 35.19 49.3655 35.19ZM49.3655 30.3623C50.4068 30.3623 51.3534 30.1256 52.1817 29.6286C53.0336 29.1317 53.6963 28.4454 54.1696 27.5697C54.6665 26.6704 54.9032 25.6292 54.9032 24.4932C54.9032 23.3336 54.6665 22.316 54.1696 21.4404C53.6726 20.5411 53.01 19.8548 52.1817 19.3578C51.3297 18.8608 50.4068 18.6242 49.3655 18.6242C48.3242 18.6242 47.3776 18.8608 46.5493 19.3578C45.6973 19.8548 45.0347 20.5411 44.5614 21.4404C44.0644 22.316 43.8278 23.3336 43.8278 24.4932C43.8278 25.6528 44.0644 26.6704 44.5614 27.5697C45.0584 28.4454 45.721 29.1317 46.5493 29.6286C47.3776 30.1256 48.3242 30.3623 49.3655 30.3623ZM67.0436 18.8372H60.7249V14.2224H79.1367V18.8372H72.8416V34.7877H67.0199V18.8372H67.0436ZM88.3662 27.3094L86.189 29.6286V34.7877H80.4383V14.2224H86.189V22.7656L94.1406 14.2224H100.554L92.1527 23.3336L101.004 34.7877H94.2352L88.3662 27.3094ZM114.446 30.7882H105.76L104.127 34.7877H98.1874L107.275 14.2224H113.002L122.113 34.7877H116.055L114.446 30.7882ZM112.742 26.5048L110.091 19.9258L107.464 26.5048H112.742Z" fill="var(--fill-0, white)"/>
</g>
<defs>
<clipPath id="clip0_0_6">
<rect width="133" height="50" fill="white"/>
</clipPath>
</defs>
</svg>
