<svg preserveAspectRatio="none" width="100%" height="100%" overflow="visible" style="display: block;" viewBox="0 0 168.656 42.5628" fill="none" xmlns="http://www.w3.org/2000/svg">
<g id="&#208;&#144;&#208;&#187;&#208;&#179;&#208;&#190;&#209;&#128;&#208;&#184;&#209;&#130;&#208;&#188;&#208;&#184;&#208;&#186;&#208;&#176; LOGO-EN">
<path id="Rectangle 115" d="M18.0756 24.642L26.5819 33.261L18.1118 41.8434L9.60549 33.2244L18.0756 24.642Z" fill="var(--fill-0, #262626)"/>
<path id="Subtract" d="M168.655 33.2822H0V0H168.655V33.2822ZM39.4805 9.47266C37.5881 9.47273 35.9908 10.1604 34.6875 11.5352C33.3842 12.8919 32.7324 14.538 32.7324 16.4736C32.7325 18.4092 33.3842 20.0646 34.6875 21.4395C35.9907 22.7959 37.5883 23.4745 39.4805 23.4746C41.4979 23.4746 43.0515 22.6871 44.1406 21.1133V22.7686C44.1406 23.9444 43.7835 24.8585 43.0693 25.5098C42.3731 26.179 41.4 26.5137 40.1504 26.5137C38.24 26.5137 36.9365 25.8168 36.2402 24.4238L33.75 25.8896C34.8927 28.0784 37.0081 29.1728 40.0967 29.1729C42.007 29.1729 43.6317 28.6211 44.9707 27.5176C46.3097 26.4141 46.9795 24.8309 46.9795 22.7686V9.8252H44.1406V11.833C43.0516 10.2592 41.4979 9.47266 39.4805 9.47266ZM56.0391 9.47266C54.0752 9.47266 52.406 10.1603 51.0312 11.5352C49.6566 12.91 48.9688 14.6014 48.9688 16.6094C48.9688 18.6173 49.6566 20.3088 51.0312 21.6836C52.406 23.0584 54.0752 23.7461 56.0391 23.7461C58.0208 23.7461 59.69 23.0584 61.0469 21.6836C62.4216 20.3088 63.1093 18.6173 63.1094 16.6094C63.1094 14.6014 62.4215 12.91 61.0469 11.5352C59.69 10.1603 58.0208 9.47266 56.0391 9.47266ZM140.294 9.47266C138.276 9.47266 136.589 10.1603 135.232 11.5352C133.893 12.8919 133.224 14.5833 133.224 16.6094C133.224 18.6173 133.893 20.3088 135.232 21.6836C136.589 23.0583 138.277 23.7461 140.294 23.7461C141.597 23.7461 142.784 23.429 143.855 22.7959C144.927 22.1627 145.748 21.3032 146.319 20.2178L143.829 18.7803C143.508 19.4134 143.025 19.9199 142.383 20.2998C141.758 20.6797 141.052 20.8691 140.267 20.8691C139.088 20.8691 138.097 20.4624 137.294 19.6484C136.508 18.8344 136.116 17.8213 136.116 16.6094C136.116 15.3975 136.509 14.3843 137.294 13.5703C138.097 12.7563 139.088 12.3487 140.267 12.3486C141.07 12.3486 141.776 12.539 142.383 12.9189C143.008 13.2807 143.472 13.7873 143.775 14.4385L146.266 12.9727C145.73 11.9054 144.927 11.055 143.855 10.4219C142.784 9.78882 141.597 9.4727 140.294 9.47266ZM152.568 9.47266C151.176 9.47266 150.006 9.85251 149.06 10.6123C148.131 11.372 147.667 12.376 147.667 13.624C147.667 14.5284 147.909 15.279 148.391 15.876C148.891 16.4549 149.498 16.8717 150.212 17.125C150.926 17.3782 151.631 17.6038 152.327 17.8027C153.041 17.9836 153.639 18.2102 154.121 18.4814C154.621 18.7528 154.871 19.1059 154.871 19.54C154.871 20.5529 154.112 21.0596 152.595 21.0596C151.077 21.0595 150.086 20.4079 149.622 19.1055L147.132 20.5713C147.56 21.5661 148.248 22.3436 149.194 22.9043C150.14 23.465 151.274 23.746 152.595 23.7461C154.094 23.7461 155.335 23.3745 156.317 22.6328C157.317 21.8912 157.817 20.8696 157.817 19.5674C157.817 18.6448 157.567 17.8841 157.067 17.2871C156.585 16.6723 155.987 16.2386 155.273 15.9854C154.559 15.7321 153.845 15.5149 153.131 15.334C152.435 15.135 151.836 14.9085 151.336 14.6553C150.854 14.384 150.613 14.0223 150.613 13.5703C150.613 13.1 150.801 12.7469 151.176 12.5117C151.551 12.2585 152.015 12.1318 152.568 12.1318C153.782 12.1319 154.622 12.6476 155.086 13.6787L157.522 12.2949C157.058 11.4085 156.389 10.7209 155.514 10.2324C154.657 9.726 153.675 9.47267 152.568 9.47266ZM81.7559 6.89453V9.8252H79.292V12.6475H81.7559V19.1602C81.7559 20.9327 82.2373 22.1539 83.2012 22.8232C84.1653 23.4745 85.7549 23.6639 87.9688 23.3926V20.7607C87.2369 20.7969 86.6209 20.8062 86.1211 20.7881C85.639 20.7519 85.2724 20.616 85.0225 20.3809C84.7727 20.1276 84.6475 19.7207 84.6475 19.1602V12.6475H87.9688V9.8252H84.6475V6.02637L81.7559 6.89453ZM16.4238 5.44043L9.47559 23.3975H12.7812L14.3711 19.5869H21.6348L23.2529 23.3975H26.5312L19.582 5.44043H16.4238ZM27.8633 5.44043V23.3926H30.7549V5.44043H27.8633ZM72.1094 9.58105C70.092 9.58105 68.7174 10.4222 67.9854 12.1045V9.8252H65.0928V23.3926H67.9854V16.5547C67.9854 15.162 68.3958 14.1673 69.2168 13.5703C70.0381 12.9552 71.0024 12.6835 72.1094 12.7559V9.58105ZM74.2461 10.7852V23.3926H77.1387V10.7852H74.2461ZM90.5918 5.44043V23.3926H93.4844V16.1211C93.4844 14.8005 93.797 13.8236 94.4219 13.1904C95.0468 12.5392 95.8681 12.2129 96.8857 12.2129C97.8139 12.213 98.5455 12.4848 99.0811 13.0273C99.6167 13.5701 99.8848 14.3483 99.8848 15.3613V23.3926H102.777V15.0625C102.777 13.3258 102.304 11.9598 101.357 10.9648C100.411 9.96995 99.1701 9.47266 97.6348 9.47266C95.7426 9.47274 94.3592 10.1689 93.4844 11.5615V5.44043H90.5918ZM120.167 9.47266C118.328 9.47266 116.962 10.1871 116.069 11.6162C115.248 10.1871 113.981 9.47267 112.267 9.47266C110.57 9.47266 109.294 10.1325 108.437 11.4531V9.8252H105.545V23.3926H108.437V15.7949C108.437 14.6191 108.714 13.7327 109.268 13.1357C109.821 12.5209 110.535 12.213 111.409 12.2129C112.213 12.2129 112.829 12.4754 113.258 13C113.704 13.5065 113.927 14.2303 113.927 15.1709V23.3926H116.819V15.7949C116.819 14.601 117.078 13.7054 117.596 13.1084C118.131 12.5114 118.846 12.2129 119.738 12.2129C120.542 12.2129 121.175 12.4754 121.64 13C122.104 13.5065 122.336 14.2302 122.336 15.1709V23.3926H125.229V14.9814C125.229 13.2991 124.764 11.9598 123.836 10.9648C122.908 9.96991 121.684 9.4727 120.167 9.47266ZM127.936 10.7852V23.3926H130.827V10.7852H127.936ZM56.0391 12.3213C57.2174 12.3213 58.2083 12.7289 59.0117 13.543C59.8151 14.357 60.2168 15.3793 60.2168 16.6094C60.2167 17.8394 59.8151 18.8618 59.0117 19.6758C58.2083 20.4897 57.2173 20.8965 56.0391 20.8965C54.8608 20.8965 53.8698 20.4897 53.0664 19.6758C52.263 18.8618 51.8614 17.8394 51.8613 16.6094C51.8613 15.3793 52.2631 14.357 53.0664 13.543C53.8698 12.7289 54.8607 12.3213 56.0391 12.3213ZM39.8828 12.2129C41.0967 12.213 42.1049 12.6206 42.9082 13.4346C43.7295 14.2486 44.1406 15.2616 44.1406 16.4736C44.1406 17.6856 43.7294 18.6987 42.9082 19.5127C42.1049 20.3265 41.0966 20.7333 39.8828 20.7334C38.6688 20.7334 37.6504 20.3268 36.8291 19.5127C36.0258 18.6987 35.6241 17.6855 35.624 16.4736C35.624 15.2618 36.0259 14.2486 36.8291 13.4346C37.6504 12.6205 38.6688 12.2129 39.8828 12.2129ZM20.6875 16.6689H15.3184L18.0029 9.12109L20.6875 16.6689ZM75.6924 5.3252C75.1746 5.3252 74.737 5.51562 74.3799 5.89551C74.023 6.25726 73.8447 6.69184 73.8447 7.19824C73.8448 7.70449 74.023 8.1476 74.3799 8.52734C74.7548 8.88914 75.1925 9.07031 75.6924 9.07031C76.1922 9.07031 76.6205 8.88906 76.9775 8.52734C77.3523 8.14757 77.5399 7.70457 77.54 7.19824C77.54 6.69182 77.3618 6.25727 77.0049 5.89551C76.6478 5.51561 76.2101 5.3252 75.6924 5.3252ZM129.381 5.3252C128.863 5.3253 128.426 5.51572 128.069 5.89551C127.712 6.25732 127.533 6.69171 127.533 7.19824C127.533 7.70457 127.712 8.14757 128.069 8.52734C128.444 8.88897 128.881 9.07021 129.381 9.07031C129.881 9.07031 130.31 8.88915 130.667 8.52734C131.042 8.1476 131.229 7.70451 131.229 7.19824C131.229 6.69173 131.05 6.25731 130.693 5.89551C130.336 5.51561 129.899 5.3252 129.381 5.3252Z" fill="var(--fill-0, #262626)"/>
</g>
</svg>
