<svg preserveAspectRatio="none" width="100%" height="100%" overflow="visible" style="display: block;" viewBox="0 0 192.612 41.7714" fill="none" xmlns="http://www.w3.org/2000/svg">
<g id="svgexport-1 (4) 1" clip-path="url(#clip0_0_22)">
<path id="Vector" d="M159.299 33.818C154.81 33.818 152.435 31.3313 152.435 26.628V14.6321H156.327V26.2834C156.318 27.6432 156.309 28.4534 157.287 29.4313C157.856 29.9994 158.684 30.2882 159.736 30.2882H163.555C164.617 30.2882 165.436 29.9994 166.005 29.4313C166.983 28.4441 166.973 27.6432 166.964 26.3019V14.6228H170.857V26.6186C170.857 31.3219 168.482 33.8087 164.002 33.8087H159.29L159.299 33.818ZM137.663 33.818C133.175 33.818 130.809 31.3313 130.809 26.628V8.08462H134.702V14.5948L135.605 14.3992C136.256 14.2595 136.927 14.1943 137.663 14.1943H142.376C146.865 14.1943 149.231 16.6811 149.231 21.3844V26.6186C149.231 31.3219 146.856 33.8087 142.376 33.8087H137.663V33.818ZM138.111 17.7242C135.12 17.7242 134.729 19.9967 134.702 21.7103V26.2834C134.692 27.6432 134.683 28.4534 135.661 29.4313C136.228 29.9994 137.058 30.2882 138.111 30.2882H141.929C142.991 30.2882 143.81 29.9994 144.379 29.4313C145.357 28.4441 145.347 27.6432 145.337 26.3019V22.53C145.337 21.1422 145.357 19.5683 144.379 18.5811C143.81 18.0129 142.982 17.7242 141.929 17.7242H138.111ZM172.934 33.818L174.544 30.2975H184.343C184.622 30.2975 184.883 30.2788 185.125 30.2416C186.708 29.9901 187.621 29.1147 187.621 27.8573C187.621 26.0412 186.243 25.9015 184.147 25.6872L183.979 25.6686C183.393 25.6034 180.236 25.324 178.904 25.2123C178.122 25.1471 177.442 25.0353 176.827 24.8677C174.322 24.2064 173.595 23.2005 173.595 20.3598C173.595 16.6344 175.337 14.6413 178.922 14.2689C179.285 14.2316 179.677 14.213 180.068 14.213H191.095L189.484 17.7335H180.515C179.509 17.7335 178.717 17.9943 178.159 18.5065C177.777 18.8511 177.525 19.4565 177.525 20.006C177.525 21.4589 178.587 21.5893 181.427 21.9247C181.977 21.9897 182.602 22.0644 183.309 22.1574L183.738 22.2039C188.468 22.7162 191.588 23.0608 191.588 27.5314C191.588 30.1578 190.899 30.9122 190.173 31.7038L189.978 31.918C188.831 33.1847 187.09 33.8273 184.79 33.8273H172.934V33.818ZM116.214 33.818C111.725 33.818 109.359 31.3313 109.359 26.628V21.3937C109.359 16.6903 111.734 14.2037 116.214 14.2037H120.926C125.416 14.2037 127.781 16.6903 127.781 21.3937V25.7991H113.243V26.5441C113.243 27.6617 113.234 28.4627 114.202 29.4406C114.77 30.0088 115.59 30.2975 116.652 30.2975H126.999L125.388 33.818H116.205H116.214ZM116.661 17.7242C113.392 17.7242 113.29 20.5462 113.262 21.4682L113.234 22.2413H123.916L123.889 21.4682C123.861 20.5462 123.759 17.7242 120.489 17.7242H116.67H116.661ZM97.1677 33.8087V21.3937C97.1677 16.6903 99.5427 14.2037 104.032 14.2037H107.962L106.9 17.7335H104.479C103.417 17.7335 102.598 18.0222 102.029 18.5996C101.052 19.5868 101.061 21.1608 101.07 22.5486V33.818H97.1771L97.1677 33.8087ZM89.9777 33.8087V14.2037H93.8707V33.8087H89.9777ZM82.6944 33.8087V22.5393C82.7037 21.1515 82.7131 19.5776 81.7352 18.5904C81.1671 18.0222 80.3382 17.7242 79.2857 17.7242H75.4671C72.1329 17.7242 72.0771 20.6207 72.0584 21.7011V33.7994H68.1653V8.08462H72.0584V14.5948L72.9618 14.3992C73.6231 14.2595 74.2936 14.185 75.0294 14.185H79.7421C84.2312 14.185 86.6062 16.6718 86.6062 21.3751V33.79H82.7131L82.6944 33.8087ZM89.9777 11.5213V8.08462H93.8707V11.5213H89.9777Z" fill="var(--fill-0, #262626)"/>
<path id="Vector_2" d="M45.6467 0.130678H22.2044C17.179 0.130678 13.1051 4.20459 13.1051 9.23003V32.6723C13.1051 37.6978 17.179 41.7716 22.2044 41.7716H45.6467C50.6722 41.7716 54.7461 37.6978 54.7461 32.6723V9.23003C54.7461 4.20459 50.6722 0.130678 45.6467 0.130678Z" fill="var(--fill-0, #F3EFED)"/>
<path id="Vector_3" d="M6.74297 22.9112L1.39698 23.8518L-4.7253e-05 30.213L1.43416 32.709L1.93714 32.9791L3.79985 32.9511L2.73809 31.666L2.97093 28.3875L4.30282 27.0557L7.80473 27.3258L7.59974 25.7611L6.74297 22.9112Z" fill="var(--fill-0, #F3EFED)"/>
<path id="Vector_4" d="M22.9913 22.2504L4.13132 24.5789L1.06724 24.821L1.14171 30.642L2.9486 30.8189L3.55389 26.9352L5.03483 25.3891L8.21068 24.7372L10.092 26.0038L11.7219 30.7817L19.238 31.3499L23.1124 31.1915L24.258 24.5789L22.9913 22.2504Z" fill="var(--fill-0, #262626)"/>
<path id="Vector_5" fill-rule="evenodd" clip-rule="evenodd" d="M53.3163 28.9276H50.7457C50.634 28.9276 50.5315 28.8717 50.4756 28.7786C50.4198 28.6855 50.4105 28.5737 50.4572 28.4713C50.5969 28.1919 50.7551 27.9217 50.9599 27.6423C51.4909 26.9345 52.3198 26.6737 53.2046 26.5712C52.6924 19.2508 50.3359 12.0514 46.0424 6.79855C45.4649 6.10003 44.7478 5.6809 43.8537 5.53188C40.0258 4.90787 36.2073 4.45152 32.3794 4.18144C31.8299 4.14418 31.3549 4.18142 30.8147 4.31181C21.8644 6.5005 11.219 9.53672 2.54805 12.9548C1.70052 13.2901 1.18827 14.0724 1.16033 14.9851C1.05788 18.8224 1.02065 22.6316 1.06722 26.413L4.15927 26.2081C3.93575 26.4223 3.72163 26.6644 3.54467 26.9438L1.07654 27.1115C1.08586 27.8472 1.10441 28.5737 1.11372 29.3002L2.7436 29.2443C2.71565 29.4677 2.70642 29.7006 2.70642 29.9428L1.12304 29.9893C1.12304 30.2129 1.12305 30.4271 1.13237 30.6506C1.16031 31.88 2.16622 32.858 3.39561 32.858H4.17792C3.72156 32.0849 3.45143 31.0976 3.45143 30.0359C3.45143 27.5399 4.93235 25.5188 6.76712 25.5188C7.5029 25.5188 8.19209 25.8448 8.73228 26.4036C8.77884 26.4502 8.77881 26.5247 8.69498 26.506C8.28518 26.2453 7.81954 26.0963 7.32592 26.0963C5.59359 26.0963 4.18725 27.9217 4.18725 30.1849C4.18725 31.554 4.70883 32.7741 5.50049 33.5098C6.15244 34.3015 7.07439 34.7951 8.08958 34.7951C9.36554 34.7951 10.4832 34.0221 11.1258 32.858H14.2831C14.9164 34.0221 16.0433 34.7951 17.3193 34.7951C18.5953 34.7951 19.713 34.0221 20.3555 32.858H24.8913C24.3046 31.8614 23.9507 30.5948 23.9507 29.2163C23.9507 26.0032 25.8693 23.3953 28.2256 23.3953C29.185 23.3953 30.0697 23.8237 30.7775 24.5502C30.8986 24.6713 30.824 24.7272 30.7123 24.7086C30.1814 24.3733 29.576 24.1776 28.9427 24.1776C26.7075 24.1776 24.8913 26.534 24.8913 29.4492C24.8913 31.2188 25.5619 32.7835 26.5864 33.7427C27.4339 34.7672 28.6168 35.4005 29.93 35.4005C31.5878 35.4005 33.0407 34.3854 33.8602 32.8672H35.8814C36.7009 34.3854 38.1631 35.4005 39.8303 35.4005C41.4974 35.4005 42.9689 34.3854 43.7793 32.8672H50.7457C52.1242 32.8672 53.2511 31.7589 53.2698 30.3806C53.2698 29.9055 53.2698 29.4212 53.2698 28.9462L53.3163 28.9276ZM22.4605 29.3095L12.7092 29.6168C12.6999 29.384 12.6718 29.1511 12.6346 28.9276L22.4792 28.611C22.4698 28.7785 22.4605 28.9462 22.4605 29.1138C22.4605 29.1791 22.4605 29.2443 22.4605 29.3095ZM23.3174 25.612L11.4612 26.4036C11.219 26.1429 10.9489 25.9287 10.6601 25.761L23.783 24.8761C23.6061 25.0997 23.4478 25.3419 23.3081 25.6026L23.3174 25.612Z" fill="var(--fill-0, #262626)"/>
<path id="Vector_6" d="M9.13194 22.7714L3.79517 23.7121L2.41679 30.0639L3.84178 32.5413L4.34476 32.8207L6.19815 32.7928L5.14571 31.4982L5.36922 28.2385L6.701 26.9065L10.2029 27.1767L9.98872 25.612L9.13194 22.7714Z" fill="var(--fill-0, #262626)"/>
<path id="Vector_7" d="M23.0938 22.2405L4.2897 24.5689L1.23483 24.8111L1.30941 30.6228L3.10686 30.7904L3.71227 26.9252L5.18377 25.3792L8.35973 24.7272L10.2318 25.9939L11.8616 30.7531L19.3498 31.3213L23.215 31.1629L24.3605 24.5689L23.0938 22.2405Z" fill="var(--fill-0, #262626)"/>
<path id="Vector_8" fill-rule="evenodd" clip-rule="evenodd" d="M53.2142 26.5714C52.3294 26.6739 51.5004 26.9347 50.9696 27.6425C50.7647 27.9219 50.597 28.192 50.4666 28.4714C50.4201 28.5739 50.4201 28.6856 50.4853 28.7788C50.5412 28.872 50.6437 28.9278 50.7554 28.9278H53.326C53.326 28.1361 53.298 27.4098 53.2235 26.5714H53.2142Z" fill="var(--fill-0, #F3EFED)"/>
<path id="Vector_9" fill-rule="evenodd" clip-rule="evenodd" d="M29.0175 7.10641C29.5111 6.98535 30.014 7.2182 30.2375 7.67456C32.3424 11.9308 33.5719 16.8484 34.1307 21.6914C34.1493 21.8218 34.0748 21.943 33.9536 21.9895C33.8326 22.0454 33.7022 22.0082 33.609 21.915C32.6591 20.816 31.5602 19.7822 30.1911 18.8601C29.8465 18.6274 29.4739 18.4876 29.092 18.441C28.8964 18.4225 28.7474 18.2548 28.7474 18.0499V7.16229L29.0175 7.09712V7.10641ZM26.6519 18.7019L26.0557 18.7856L26.0744 18.7297C25.5156 17.3699 25.5994 17.2862 24.4165 16.8484C24.1838 16.7646 24.0254 16.6994 23.8764 16.5877C23.8764 16.5039 23.8764 16.42 23.8857 16.3362C24.2303 16.299 24.5377 16.1313 24.7891 15.8053C25.2455 15.2092 25.1897 14.846 25.1897 14.1568C25.4784 13.8215 25.5807 13.4118 25.441 12.8995C25.6181 11.6328 24.6588 11.223 24.0255 11.4186C23.6437 11.251 23.1872 11.1951 22.8613 11.3255C22.6005 9.80735 20.3372 10.5338 21.045 12.2195C20.4862 12.8995 20.8495 13.2441 20.6911 13.6912C20.6818 13.7284 20.6911 13.7564 20.7098 13.7842C20.7284 13.8122 20.7656 13.8216 20.8029 13.8216C21.0544 13.7842 21.3337 13.5607 21.3711 13.3186C21.4083 14.222 21.8274 15.0043 22.3956 15.3769V16.2338C22.1348 16.4014 21.8647 16.5224 21.6038 16.6249C21.0917 16.8204 20.747 16.923 20.5514 17.221C20.2813 17.6401 20.3652 18.9067 20.3839 19.5679L20.2348 19.5866C20.123 19.6053 20.0113 19.568 19.9275 19.4934C19.8436 19.4189 19.7971 19.3165 19.7971 19.1955V9.8912C19.7971 9.71424 19.9088 9.56519 20.0765 9.51863C22.2187 8.90393 24.3607 8.31719 26.5215 7.75838C26.6425 7.73044 26.7636 7.75838 26.8567 7.82358C26.9592 7.89809 27.0058 8.00984 27.0058 8.13091V18.32C27.0058 18.5155 26.8661 18.6832 26.6705 18.7112L26.6519 18.7019ZM15.9226 18.2734V17.5656C16.0902 17.2955 16.2114 16.9881 16.2021 16.5969C16.5467 16.5132 16.6305 15.675 16.2021 15.6283C16.2207 15.4421 16.2393 15.2092 16.2301 14.9764C16.2301 14.4269 16.2299 14.1009 15.6617 13.8681C15.3823 13.477 15.0845 13.5048 14.5722 13.5421C13.5849 13.2534 12.9888 14.0357 13.0448 14.7901C13.1192 15.1161 13.2217 15.5353 13.2962 15.8612C13.054 16.0568 13.2497 16.895 13.5198 16.7646C13.6688 17.1092 13.8643 17.519 14.0692 17.724C14.0599 17.9289 14.0505 18.1337 14.0412 18.3386C13.2775 19.1488 11.9457 19.1303 11.7221 20.7322C11.6198 20.7322 11.5824 20.7787 11.5824 20.5925V12.4059C11.5824 12.2382 11.685 12.0892 11.8525 12.0333C13.7339 11.4093 15.6245 10.8132 17.5245 10.2451C17.6455 10.2079 17.7667 10.2265 17.8691 10.3103C17.9716 10.3848 18.0275 10.4966 18.0275 10.6269V19.5028C18.0275 19.9033 17.9623 19.8753 17.7388 19.9125C17.5619 19.1488 16.9751 19.0278 15.932 18.2734H15.9226ZM9.82228 20.9929L9.56146 21.0303C9.26343 20.7694 8.94671 20.5086 8.45309 20.2013C8.45309 19.866 8.3134 19.5866 7.99674 19.3724C8.57417 18.9719 8.74181 18.2454 8.68593 17.3793C9.1423 16.8856 8.8536 15.9544 8.2389 15.8984C7.26097 14.4269 4.45766 15.768 5.40765 18.7577C4.80226 19.4469 4.58805 20.1454 5.04441 20.6949C4.57873 21.0488 4.37379 21.1048 4.18752 21.4772V15.0323C4.18752 14.8646 4.28067 14.7249 4.439 14.6691C6.05025 14.0543 7.6801 13.4676 9.30999 12.8995C9.43105 12.8529 9.56145 12.8715 9.66391 12.946C9.76635 13.0205 9.83159 13.1324 9.83159 13.2627V20.9743L9.82228 20.9929Z" fill="var(--fill-0, #F3EFED)"/>
<path id="Vector_10" fill-rule="evenodd" clip-rule="evenodd" d="M44.581 7.99936C48.2599 12.5072 50.3182 18.4119 51.0819 24.3167C51.1005 24.4472 51.0633 24.5589 50.9794 24.652C50.8957 24.7451 50.7839 24.7918 50.6535 24.7918L47.0026 24.7079C46.7977 24.7079 46.63 24.5589 46.5927 24.354C46.2482 22.2118 45.8757 20.3305 45.3075 18.1884C45.2609 18.0022 45.1026 17.881 44.907 17.8718L43.8174 17.8531C43.6777 17.8531 43.5565 17.909 43.4728 18.0115C43.389 18.1139 43.3609 18.2442 43.3982 18.3839C43.9197 20.3305 44.311 22.1932 44.6369 24.1491C44.6556 24.2795 44.6275 24.4005 44.5437 24.4937C44.46 24.5961 44.3482 24.6427 44.2178 24.6427L38.8718 24.5217C38.6576 24.5217 38.4807 24.354 38.4621 24.1304C37.9777 18.0021 36.59 11.9856 34.243 6.85378C34.1126 6.55574 34.3454 6.22975 34.662 6.25769C35.8915 6.36945 37.1301 6.49986 38.3595 6.64888C38.4992 6.6675 38.6018 6.7327 38.6763 6.85378C39.5237 8.29737 40.2037 9.62921 40.8929 11.1846C40.9581 11.3429 41.107 11.4361 41.2747 11.4361L42.4296 11.4547C42.5786 11.4547 42.7089 11.3895 42.7834 11.2684C42.8673 11.1473 42.8766 10.9983 42.8208 10.8679C42.3644 9.79686 41.8614 8.74442 41.3306 7.71993C41.2561 7.58023 41.2654 7.41257 41.3586 7.28219C41.4517 7.1518 41.6007 7.08661 41.7683 7.10523C42.3644 7.19837 42.9605 7.29152 43.5565 7.38466C43.9943 7.45916 44.311 7.63611 44.5904 7.98071L44.581 7.99936Z" fill="var(--fill-0, #F3EFED)"/>
<path id="Vector_11" fill-rule="evenodd" clip-rule="evenodd" d="M46.7877 36.5651C48.9392 36.3602 50.5412 36.1088 51.6216 35.8387C52.525 35.6151 54.4808 34.9073 51.5936 34.7396C48.7157 34.5721 43.0437 34.3857 41.4605 34.3299C34.7732 34.1156 7.26098 33.6685 1.75665 34.0039C0.666967 34.0691 0.638958 35.2612 2.50168 35.3171C22.3769 36.2298 22.9544 36.9283 44.8226 36.6489C45.6236 36.6396 46.2756 36.6117 46.7877 36.5559V36.5651Z" fill="var(--fill-0, #262626)"/>
<path id="Vector_12" fill-rule="evenodd" clip-rule="evenodd" d="M28.4121 26.0218C27.4807 26.0218 26.7263 27.4095 26.7263 29.1232C26.7263 30.8369 27.4807 32.2246 28.4121 32.2246C29.3435 32.2246 30.0978 30.8369 30.0978 29.1232C30.0978 27.4095 29.3435 26.0218 28.4121 26.0218ZM28.2724 27.512C28.7567 27.512 29.1478 28.2291 29.1478 29.1139C29.1478 29.9987 28.7567 30.7158 28.2724 30.7158C27.7881 30.7158 27.3969 29.9987 27.3969 29.1139C27.3969 28.2291 27.7881 27.512 28.2724 27.512Z" fill="var(--fill-0, #F3EFED)"/>
<path id="Vector_13" fill-rule="evenodd" clip-rule="evenodd" d="M6.89831 27.5304C6.17186 27.5304 5.5944 28.6015 5.5944 29.9333C5.5944 31.2651 6.18117 32.3362 6.89831 32.3362C7.61546 32.3362 8.20224 31.2651 8.20224 29.9333C8.20224 28.6015 7.61546 27.5304 6.89831 27.5304ZM6.79588 28.6852C7.16842 28.6852 7.47576 29.2441 7.47576 29.9333C7.47576 30.6225 7.16842 31.1813 6.79588 31.1813C6.42334 31.1813 6.11589 30.6225 6.11589 29.9333C6.11589 29.2441 6.42334 28.6852 6.79588 28.6852Z" fill="var(--fill-0, #F3EFED)"/>
<path id="Vector_14" fill-rule="evenodd" clip-rule="evenodd" d="M23.5506 15.2557C23.6343 15.47 23.8579 15.6097 24.1094 15.6097C24.3608 15.6097 24.5843 15.4606 24.6682 15.2557C24.6775 15.2278 24.6775 15.1906 24.6682 15.1626C24.6495 15.1347 24.6216 15.116 24.5844 15.116H23.6436C23.6436 15.116 23.5785 15.1347 23.5598 15.1626C23.5413 15.1906 23.5413 15.2278 23.5598 15.2557H23.5506ZM7.15858 18.5714C7.23309 18.7576 7.42869 18.8788 7.6429 18.8788C7.85712 18.8788 8.05272 18.7484 8.12723 18.5714C8.13654 18.5434 8.12723 18.5155 8.12723 18.4875C8.1086 18.4596 8.09002 18.4503 8.05276 18.4503H7.23316C7.23316 18.4503 7.17721 18.4596 7.15858 18.4875C7.13995 18.5155 7.13995 18.5434 7.15858 18.5714ZM14.3394 17.0347C14.4511 17.2395 14.6747 17.3606 14.9356 17.3327C15.187 17.3047 15.3918 17.1371 15.457 16.9228C15.4663 16.895 15.457 16.8576 15.4383 16.8298C15.4198 16.8018 15.3825 16.7925 15.3546 16.7925L14.4232 16.8856C14.4232 16.8856 14.3581 16.9043 14.3488 16.9415C14.3301 16.9695 14.3301 17.0067 14.3488 17.0347H14.3394Z" fill="var(--fill-0, #F3EFED)"/>
<path id="Vector_15" fill-rule="evenodd" clip-rule="evenodd" d="M38.6213 26.9442C38.6213 26.8232 38.6585 26.7207 38.7424 26.6368C38.8262 26.5531 38.9287 26.5065 39.0498 26.5158C40.3071 26.5531 41.6763 26.6368 42.4306 27.6521C42.6355 27.9315 42.8031 28.2015 42.9335 28.4809C42.9801 28.5834 42.98 28.6951 42.9149 28.7883C42.859 28.8815 42.7566 28.9373 42.6448 28.9373H39.0683C38.8354 28.9373 38.6492 28.751 38.6492 28.5276L38.612 26.9535L38.6213 26.9442Z" fill="var(--fill-0, #F3EFED)"/>
</g>
<defs>
<clipPath id="clip0_0_22">
<rect width="192.612" height="41.7714" fill="white"/>
</clipPath>
</defs>
</svg>
