<svg preserveAspectRatio="none" width="100%" height="100%" overflow="visible" style="display: block;" viewBox="0 0 24.8719 21.5884" fill="none" xmlns="http://www.w3.org/2000/svg">
<g id="Polygon 12 (Stroke)">
<path d="M9.0323 11.4978L11.6845 13.029L12.3203 13.3961C12.3918 13.4374 12.48 13.4374 12.5516 13.3961L13.1873 13.029L15.8396 11.4978L16.645 11.0328C16.7439 10.9757 16.7863 10.855 16.7449 10.7485L12.6084 0.117957C12.5472 -0.0393192 12.3247 -0.0393192 12.2635 0.117958L8.12698 10.7485C8.08557 10.855 8.128 10.9757 8.2269 11.0328L9.0323 11.4978Z" fill="var(--fill-0, #262626)"/>
<path d="M10.9332 14.3305L8.28091 12.7992L7.4755 12.3342C7.37661 12.2771 7.25085 12.3007 7.17939 12.3898L0.0412857 21.2874C-0.0643207 21.419 0.0469525 21.6118 0.213757 21.5861L11.4884 19.8531C11.6012 19.8358 11.6845 19.7387 11.6845 19.6245V18.6945V15.6319V14.8979C11.6845 14.8152 11.6405 14.7389 11.5689 14.6975L10.9332 14.3305Z" fill="var(--fill-0, #262626)"/>
<path d="M13.1873 15.6319V18.6945V19.6245C13.1873 19.7387 13.2707 19.8358 13.3835 19.8531L24.6581 21.5861C24.8249 21.6118 24.9362 21.419 24.8306 21.2874L17.6925 12.3898C17.621 12.3007 17.4953 12.2771 17.3964 12.3342L16.591 12.7992L13.9387 14.3305L13.303 14.6975C13.2314 14.7389 13.1873 14.8152 13.1873 14.8979V15.6319Z" fill="var(--fill-0, #262626)"/>
</g>
</svg>
