<svg preserveAspectRatio="none" width="100%" height="100%" overflow="visible" style="display: block;" viewBox="0 0 135.599 30.1607" fill="none" xmlns="http://www.w3.org/2000/svg">
<g id="leverate">
<path id="Vector" d="M127.918 10.295C133.106 10.295 135.559 13.4316 135.559 17.0106C135.559 17.5736 135.519 18.2572 135.438 18.78H123.294C123.214 19.2223 123.214 19.7049 123.214 19.9462C123.214 24.3697 125.667 26.9835 129.567 26.9835C131.699 26.9835 133.508 26.1793 134.674 25.1337L135.599 26.0988C134.634 27.7878 132.141 30.1604 127.557 30.1604C122.007 30.1604 118.348 26.4607 118.348 20.8711C118.348 14.4772 122.369 10.295 127.918 10.295ZM127.436 12.2654C125.184 12.2654 123.736 14.3967 123.415 17.0106H129.527C130.532 17.0106 130.814 16.6889 130.814 16.0053C130.814 13.9544 129.567 12.2654 127.436 12.2654Z" fill="var(--fill-0, #262626)"/>
<path id="Vector_2" d="M111.131 30.1606C108.115 30.1606 106.546 28.4315 106.546 25.335C106.546 23.9678 106.546 21.756 106.627 18.6998L106.707 13.1906H104.133V11.6625L104.536 11.5418C106.908 10.818 108.155 9.08884 108.999 6.99774L109.321 6.2739H111.291V10.7778H116.519V13.1906H111.251L111.171 18.6998C111.131 21.0322 111.09 23.2037 111.09 24.4503C111.09 26.461 111.774 27.3055 113.382 27.3055C114.589 27.3055 115.675 26.9436 116.439 26.4208L117.042 27.6674C116.117 28.713 114.348 30.1606 111.131 30.1606Z" fill="var(--fill-0, #262626)"/>
<path id="Vector_3" d="M90.127 30.1604C87.3522 30.1604 85.1405 28.3106 85.1405 25.4554C85.1405 23.123 86.7088 21.5949 88.6793 20.7102C90.6095 19.8255 93.0625 19.5038 94.9526 19.5038H95.596V16.6487C95.596 13.9946 94.2287 12.8284 92.1778 12.8284C91.2931 12.8284 90.3682 12.9893 89.8455 13.2306V15.7238C89.8455 16.5683 89.3227 16.89 87.9152 16.89C86.3871 16.89 85.7437 16.0857 85.7437 14.9999C85.7437 13.7131 87.2718 12.7882 89.001 11.9035C90.5693 11.0992 92.58 10.295 94.2689 10.295C98.1696 10.295 100.14 12.4665 100.14 16.327C100.14 17.453 100.019 23.9675 100.019 24.9326C100.019 26.2195 100.502 27.0237 101.507 27.0237C102.07 27.0237 102.472 26.8227 102.794 26.501L103.478 27.3052C102.834 28.6725 101.467 30.1604 99.1347 30.1604C97.0839 30.1604 95.797 28.7931 95.7568 27.3052H95.6764C94.8319 28.7529 92.781 30.1604 90.127 30.1604ZM92.3387 27.2248C93.7059 27.2248 94.8721 26.6216 95.596 25.6967V21.233H94.5906C91.4138 21.233 89.7248 22.2786 89.7248 24.6109C89.7248 26.139 90.8106 27.2248 92.3387 27.2248Z" fill="var(--fill-0, #262626)"/>
<path id="Vector_4" d="M81.8697 10.2946C83.4782 10.2946 84.3629 11.1391 84.3629 12.5063C84.3629 13.9138 83.5587 14.7985 82.6338 15.1202L82.1914 15.281C81.7491 14.6376 81.0252 14.0746 79.859 14.0746C78.4516 14.0746 77.2452 15.4419 76.8028 16.6081V25.9376C76.8028 27.3853 77.9288 27.7472 79.095 28.0287L80.1003 28.2699V29.6774C78.7331 29.6372 76.3605 29.597 74.5107 29.597C72.5804 29.597 70.8915 29.6372 69.484 29.6774V28.2699L70.4491 27.9885C71.8968 27.5461 72.2185 27.2244 72.2185 25.9376V15.4821C72.2185 13.954 71.6957 13.7529 70.4491 13.391L69.6449 13.1899V11.8629C71.8566 11.4608 73.827 10.8576 76.0388 10.1337L76.8028 10.4956C76.7224 11.2597 76.642 12.3455 76.642 13.4312V14.3561H76.7224C77.6071 12.265 79.4167 10.2946 81.8697 10.2946Z" fill="var(--fill-0, #262626)"/>
<path id="Vector_5" d="M59.504 10.295C64.6915 10.295 67.1445 13.4316 67.1445 17.0106C67.1445 17.5736 67.1043 18.2572 67.0239 18.78H54.8795C54.799 19.2223 54.799 19.7049 54.799 19.9462C54.799 24.3697 57.252 26.9835 61.1527 26.9835C63.2841 26.9835 65.0936 26.1793 66.2598 25.1337L67.1847 26.0988C66.2196 27.7878 63.7264 30.1604 59.1421 30.1604C53.5926 30.1604 49.9332 26.4607 49.9332 20.8711C49.9332 14.4772 53.9546 10.295 59.504 10.295ZM59.0214 12.2654C56.7695 12.2654 55.3218 14.3967 55.0001 17.0106H61.1125C62.1179 17.0106 62.3994 16.6889 62.3994 16.0053C62.3994 13.9544 61.1527 12.2654 59.0214 12.2654Z" fill="var(--fill-0, #262626)"/>
<path id="Vector_6" d="M38.326 29.6776L32.5353 14.5574C32.093 13.351 31.6104 12.8282 30.6453 12.4663L29.7606 12.1446V10.7774C30.967 10.8176 32.9777 10.8578 34.6264 10.8578C36.3556 10.8578 38.2054 10.8176 39.4922 10.7774V12.1446L38.2054 12.5065C37.4413 12.7076 37.1598 13.1499 37.1598 13.7129C37.1598 13.9944 37.2805 14.3563 37.4011 14.7183L41.0605 24.9325H41.141L44.8406 14.7183C44.9612 14.3966 45.0819 13.9542 45.0819 13.6727C45.0819 13.1499 44.8004 12.7076 44.0765 12.5065L42.7093 12.1446V10.7774C43.9157 10.8176 45.5644 10.8578 46.61 10.8578C47.9772 10.8578 49.1434 10.8176 50.1085 10.7774V12.1446L49.1434 12.5065C48.2989 12.788 47.8164 13.351 47.3338 14.5574L41.2214 29.6776H38.326Z" fill="var(--fill-0, #262626)"/>
<path id="Vector_7" d="M21.5116 10.295C26.6991 10.295 29.1522 13.4316 29.1522 17.0106C29.1522 17.5736 29.1119 18.2572 29.0315 18.78H16.8871C16.8067 19.2223 16.8067 19.7049 16.8067 19.9462C16.8067 24.3697 19.2597 26.9835 23.1604 26.9835C25.2917 26.9835 27.1013 26.1793 28.2675 25.1337L29.1924 26.0988C28.2272 27.7878 25.734 30.1604 21.1497 30.1604C15.6003 30.1604 11.9408 26.4607 11.9408 20.8711C11.9408 14.4772 15.9622 10.295 21.5116 10.295ZM21.0291 12.2654C18.7771 12.2654 17.3294 14.3967 17.0077 17.0106H23.1201C24.1255 17.0106 24.407 16.6889 24.407 16.0053C24.407 13.9544 23.1604 12.2654 21.0291 12.2654Z" fill="var(--fill-0, #262626)"/>
<path id="Vector_8" d="M0 29.6775V28.27L0.924907 27.9885C2.37259 27.5461 2.73451 27.2244 2.73451 25.9376V5.34838C2.73451 3.82027 2.17152 3.6192 0.924907 3.25728L0.160853 3.05621V1.72917C2.33237 1.32704 4.5039 0.723841 6.71563 0L7.47968 0.402133C7.39926 1.16619 7.31883 2.21173 7.31883 3.29749V25.9376C7.31883 27.2244 7.68075 27.5461 9.08822 27.9885L10.0533 28.27V29.6775C8.68608 29.6372 6.87648 29.597 5.02667 29.597C3.09643 29.597 1.40747 29.6372 0 29.6775Z" fill="var(--fill-0, #262626)"/>
</g>
</svg>
