<svg preserveAspectRatio="none" width="100%" height="100%" overflow="visible" style="display: block;" viewBox="0 0 128.485 46.7408" fill="none" xmlns="http://www.w3.org/2000/svg">
<g id="Group">
<path id="Vector" d="M42.076 37.9123C38.3291 39.551 34.3287 40.6699 30.1844 41.2374C27.269 41.6337 23.5113 41.7193 20.2371 41.4883C25.258 41.5181 29.5291 40.7456 31.6173 40.2836C43.8485 37.5718 50.5 28.6339 49.4086 16.3728C49.3549 15.7396 48.7942 15.2637 48.1067 15.2637C47.5738 15.2637 47.1162 15.5504 46.9185 16.0083C42.7914 25.5218 33.5532 32.628 22.3382 35.3478C22.4629 35.3079 22.5875 35.2702 22.712 35.2283C31.9032 32.2257 38.7373 26.7164 40.9996 20.4943C42.8451 15.4151 41.7752 10.0152 37.8199 4.44612C37.5321 4.04391 37.0722 3.81096 36.5566 3.81096C35.7273 3.81096 35.0506 4.41025 35.0206 5.17484C34.6338 15.18 30.6677 20.2036 26.8392 23.7994C25.4728 25.0837 24.13 26.2008 22.8023 27.1744C26.5556 24.1022 29.2992 20.0802 30.6227 15.5624C31.2801 13.3105 32.8097 5.54522 24.8154 0.189192C24.3384 -0.131372 23.5865 -0.0258796 23.1868 0.402203C22.9678 0.633173 22.871 0.935851 22.9161 1.23053C24.3191 10.051 21.9923 18.8914 16.3655 26.1251C16.1722 26.374 15.9638 26.6189 15.7447 26.8637C17.4441 24.6139 18.7289 22.0971 19.5065 19.439C20.1683 17.1811 21.7022 9.3979 13.6585 4.03793C13.1923 3.72732 12.4725 3.83685 12.0772 4.25697C11.8559 4.4959 11.755 4.80651 11.8001 5.10717C12.956 12.3746 11.5917 19.6221 7.94367 25.9897C9.36593 22.3281 9.80422 18.3698 9.18332 14.4553C8.91262 12.7609 8.44426 11.0883 7.79328 9.48361C7.44524 8.63935 6.05517 8.43822 5.45145 9.15696C2.11062 13.1192 0.228568 17.8561 0.0115762 22.8577C-0.0786586 24.9702 0.366069 26.7263 1.0858 28.1062C1.0858 28.1062 0.250053 28.2555 0.548687 29.1276C2.32116 34.2985 8.01457 40.4669 12.4618 43.2683C16.2925 45.6835 20.9073 46.7408 25.5222 46.7408C26.7317 46.7408 27.9565 46.6571 29.1639 46.4938C34.6617 45.7432 39.5946 43.3818 43.4317 39.6665C43.7647 39.3459 43.8506 38.8919 43.6637 38.4818C43.4059 37.9203 42.6796 37.6515 42.076 37.9123ZM74.9085 34.7186C71.6106 34.7186 69.5611 37.3269 69.5611 40.5067C69.5611 43.6885 71.6794 46.249 74.9085 46.249C78.1569 46.249 80.2409 43.7204 80.2409 40.5067C80.2409 37.6136 78.4642 34.7186 74.9085 34.7186ZM123.957 36.1164V45.5342C123.957 45.9484 124.282 46.249 124.692 46.249C125.135 46.249 125.442 45.9324 125.442 45.5342V36.1164H127.818C128.245 36.1164 128.485 35.8316 128.485 35.4652C128.485 35.0691 128.194 34.8142 127.749 34.8142H121.652C121.222 34.8142 120.915 35.1009 120.915 35.4652C120.915 35.8157 121.222 36.1164 121.616 36.1164H123.957ZM119.497 37.0562C119.841 37.0562 120.131 36.7376 120.131 36.4667C120.131 35.3538 117.875 34.7186 116.56 34.7186C112.887 34.7186 111.179 37.5957 111.179 40.6501C111.179 43.561 113.125 46.249 116.526 46.249C117.482 46.249 120.352 45.8527 120.352 44.6581C120.352 44.3097 120.166 44.0388 119.79 44.0388C118.971 44.0388 118.541 45.0404 116.423 45.0404C113.791 45.0404 112.784 42.446 112.784 40.3792C112.784 38.2966 114.015 35.9252 116.664 35.9252C118.509 35.9252 118.816 37.0562 119.497 37.0562ZM68.2504 37.0562C68.5921 37.0562 68.8843 36.7376 68.8843 36.4667C68.8843 35.3538 66.6263 34.7186 65.3114 34.7186C61.6397 34.7186 59.9296 37.5957 59.9296 40.6501C59.9296 43.561 61.8782 46.249 65.277 46.249C66.2352 46.249 69.1056 45.8527 69.1056 44.6581C69.1056 44.3097 68.9165 44.0388 68.5405 44.0388C67.7198 44.0388 67.2944 45.0404 65.176 45.0404C62.5442 45.0404 61.5366 42.446 61.5366 40.3792C61.5366 38.2966 62.7655 35.9252 65.4145 35.9252C67.2579 35.9252 67.5652 37.0562 68.2504 37.0562ZM82.2906 34.7186C81.8802 34.7186 81.6567 35.0212 81.6567 35.4832V45.5342C81.6567 45.9324 81.9812 46.249 82.3916 46.249C82.8363 46.249 83.1435 45.9802 83.1435 45.566V37.2811H83.1607L89.5501 45.8369C89.8058 46.1853 90.0808 46.249 90.388 46.249C90.8155 46.249 91.0541 45.9642 91.0541 45.566V35.4652C91.0541 35.0212 90.7468 34.7186 90.2849 34.7186C89.823 34.7186 89.5673 35.0531 89.5673 35.4652V43.7203H89.5501L83.1951 35.2264C82.9222 34.8779 82.63 34.7186 82.2906 34.7186ZM93.7267 34.7186C93.3184 34.7186 93.095 35.0212 93.095 35.4832V45.5342C93.095 45.9324 93.4194 46.249 93.8298 46.249C94.2745 46.249 94.5817 45.9802 94.5817 45.566V37.2811H94.599L100.988 45.8369C101.247 46.1853 101.519 46.249 101.826 46.249C102.254 46.249 102.492 45.9642 102.492 45.566V35.4652C102.492 35.0212 102.185 34.7186 101.723 34.7186C101.264 34.7186 101.005 35.0531 101.005 35.4652V43.7203H100.988L94.6333 35.2264C94.3605 34.8779 94.0705 34.7186 93.7267 34.7186ZM106.02 36.1164H109.728C110.138 36.1164 110.397 35.8316 110.397 35.4652C110.397 35.1148 110.156 34.8142 109.763 34.8142H105.167C104.792 34.8142 104.535 35.1805 104.535 35.5946V45.3749C104.535 45.7572 104.67 46.1534 105.268 46.1534H109.66C110.104 46.1534 110.397 45.8986 110.397 45.5342C110.397 45.136 110.19 44.8492 109.763 44.8492H106.02V41.1598H109.37C109.797 41.1598 110.07 40.8731 110.07 40.5067C110.07 40.1264 109.814 39.8556 109.404 39.8556H106.02V36.1164ZM28.9383 45.0942C23.4919 45.8388 17.9253 44.7597 13.2696 42.0697C13.087 41.9642 12.8894 41.8507 12.6831 41.7273C17.0101 42.8741 21.7453 43.0334 24.0355 43.0334C26.3042 43.0334 28.5086 42.896 30.4078 42.6352C34.0988 42.1294 37.6802 41.2016 40.9867 39.8914C37.6072 42.6849 33.48 44.4749 28.9383 45.0942ZM74.9085 35.9252C77.5919 35.9252 78.6339 38.0735 78.6339 40.4768C78.6339 42.7506 77.5575 45.0404 74.9085 45.0404C72.1757 45.0404 71.1681 42.7008 71.1681 40.4768C71.1681 38.1214 72.3626 35.9252 74.9085 35.9252ZM7.81259 37.0223C9.82353 37.751 12.1331 38.0398 14.5952 37.9063C29.4603 37.1019 42.4412 29.0818 47.9519 17.3782C48.5836 28.4228 42.3983 36.4389 31.2629 38.9078C29.2949 39.3439 25.2988 40.0766 20.6281 40.0766C16.4064 40.0766 11.263 39.4734 7.81259 37.0223ZM6.68035 33.8804C5.59753 33.2771 4.78112 32.7276 4.14518 32.1481C4.20749 32.174 4.27196 32.1999 4.33427 32.2218C6.29579 32.9406 8.31747 33.3049 10.3413 33.3049C16.0733 33.3049 21.8248 30.5214 27.9242 24.793C31.9611 21.0039 36.1398 15.7156 36.5437 5.22267C40.2304 10.4094 41.2402 15.3971 39.5537 20.0423C37.4418 25.8563 30.9556 31.0352 22.205 33.8943C15.7253 36.0109 10.5196 36.0128 6.68035 33.8804ZM13.42 5.64475C19.9298 10.4472 18.6128 17.0955 18.0349 19.0686C16.6857 23.67 13.7272 27.8215 9.69463 30.7822C8.71494 30.7682 7.73527 30.6608 6.76847 30.4597C12.2749 23.2002 14.6211 14.4533 13.42 5.64475ZM17.6009 26.9513C23.305 19.6222 25.7543 10.7061 24.5361 1.76612C31.0438 6.56862 29.7289 13.2208 29.151 15.192C27.6277 20.3848 24.1365 24.9046 19.3261 27.9131C17.8243 28.835 16.2797 29.5298 14.5931 30.0395C15.6824 29.06 16.7501 28.0445 17.6009 26.9513ZM100.299 0C99.1731 0 98.361 0.680955 98.361 1.74419V6.80757H96.6035C95.4304 6.80757 94.6634 7.48848 94.6634 8.46809C94.6634 9.36207 95.5658 10.0411 96.6035 10.0411H98.361V27.8275C98.361 29.1914 98.855 29.7429 100.209 29.7429C101.382 29.7429 102.282 29.0201 102.282 27.9111V10.0411H104.267C105.215 10.0411 105.934 9.31827 105.934 8.46809C105.934 7.36105 105.167 6.80757 104.087 6.80757H102.282V1.82985C102.282 0.639175 101.472 0 100.299 0ZM110.161 6.5527C109.258 6.5527 108.4 7.23363 108.4 8.08582C108.4 8.55174 108.716 9.19091 109.122 9.70063L115.479 17.5295L108.221 26.3381C107.681 26.9792 107.455 27.6582 107.455 28.0842C107.455 29.0619 108.31 29.7429 109.212 29.7429C110.022 29.7429 110.609 29.488 111.15 28.807L117.734 20.1678L124.088 28.4666C124.765 29.3606 125.442 29.7429 126.207 29.7429C127.109 29.7429 127.876 29.1038 127.876 28.2535C127.876 27.487 127.605 26.8499 127.021 26.1271L120.032 17.5295L126.389 9.61697C126.749 9.14909 126.931 8.72298 126.931 8.29689C126.931 7.27546 126.207 6.5527 125.218 6.5527C124.54 6.5527 124 6.85136 123.549 7.44669L117.734 14.7659L111.873 7.36109C111.421 6.80757 110.882 6.5527 110.161 6.5527ZM62.4712 6.5527C61.3905 6.5527 60.443 7.31726 60.443 8.3805V27.9111C60.443 29.0201 61.3904 29.7429 62.3809 29.7429C63.5089 29.7429 64.366 28.9783 64.366 27.9111V14.7659C64.366 11.6599 66.4845 9.78625 69.5052 9.78625C72.7494 9.78625 74.5992 11.7853 74.5992 15.19V27.9111C74.5992 29.0201 75.5445 29.7429 76.5391 29.7429C77.665 29.7429 78.5222 28.9783 78.5222 27.9111V14.7659C78.5222 11.6599 80.6406 9.78625 83.6612 9.78625C86.9076 9.78625 88.7553 11.7853 88.7553 15.19V27.9111C88.7553 29.0201 89.7027 29.7429 90.6952 29.7429C91.821 29.7429 92.6782 28.9783 92.6782 27.9111V14.6804C92.6782 10.1287 89.7027 6.5527 84.6538 6.5527C81.4054 6.5527 79.1516 7.70354 77.0785 10.3816C75.5445 7.9146 73.3359 6.5527 70.6331 6.5527C68.0163 6.5527 65.9882 7.44668 64.4542 9.27644H64.366V8.55176C64.366 7.36109 63.6894 6.5527 62.4712 6.5527ZM6.46981 10.2481C7.03055 11.6758 7.43448 13.1591 7.67081 14.6624C8.50441 19.887 7.32492 25.1873 4.35147 29.6672C2.80675 28.6975 1.39089 26.3361 1.53699 22.9135C1.73679 18.3021 3.44051 13.9297 6.46981 10.2481Z" fill="var(--fill-0, #262626)"/>
</g>
</svg>
