<svg preserveAspectRatio="none" width="100%" height="100%" overflow="visible" style="display: block;" viewBox="0 0 24 24" fill="none" xmlns="http://www.w3.org/2000/svg">
<g id="Step Number">
<path d="M9.91309 1H14.0869C19.0095 1 23 4.99055 23 9.91309V14.0869C23 19.0095 19.0095 23 14.0869 23H9.91309C4.99055 23 1 19.0095 1 14.0869V9.91309C1 4.99055 4.99055 1 9.91309 1Z" fill="var(--fill-0, #6CD6AB)"/>
<path d="M9.91309 1H14.0869C19.0095 1 23 4.99055 23 9.91309V14.0869C23 19.0095 19.0095 23 14.0869 23H9.91309C4.99055 23 1 19.0095 1 14.0869V9.91309C1 4.99055 4.99055 1 9.91309 1Z" stroke="var(--stroke-0, white)" stroke-width="2"/>
<path id="Vector 1978" d="M6.54882 11.5964L10.5996 15.4036L17.4512 8.59644" stroke="var(--stroke-0, #333333)" stroke-width="2" stroke-linecap="round" stroke-linejoin="round"/>
</g>
</svg>
