<svg preserveAspectRatio="none" width="100%" height="100%" overflow="visible" style="display: block;" viewBox="0 0 94.177 108.746" fill="none" xmlns="http://www.w3.org/2000/svg">
<g id="Group 2087329369">
<g id="Polygon 12 (Stroke)">
<path d="M43.5276 39.7921L36.9677 51.1542L35.9916 52.8448C35.4456 53.7905 35.4456 54.9557 35.9916 55.9014L36.9677 57.5921L43.5276 68.9542L44.6335 70.8696C45.3879 72.1762 46.9829 72.737 48.389 72.1898L88.3205 56.652C90.3986 55.8434 90.3986 52.9029 88.3205 52.0943L48.389 36.5564C46.9829 36.0093 45.3879 36.57 44.6335 37.8767L43.5276 39.7921Z" fill="var(--fill-0, #FE6347)"/>
<path d="M31.3923 47.9353L37.9523 36.5732L39.0581 34.6578C39.8125 33.3511 39.5006 31.6894 38.3237 30.7453L4.90183 3.93249C3.1625 2.53712 0.615963 4.00736 0.954731 6.21134L7.46431 48.562C7.69354 50.0533 8.97663 51.1542 10.4855 51.1542L12.6972 51.1542L25.817 51.1542L27.7692 51.1542C28.8612 51.1542 29.8703 50.5716 30.4163 49.6259L31.3923 47.9353Z" fill="var(--fill-0, #FE6347)"/>
<path d="M25.817 57.5921L12.6972 57.5921L10.4855 57.5921C8.97663 57.5921 7.69354 58.693 7.46431 60.1843L0.954731 102.535C0.615963 104.739 3.1625 106.209 4.90182 104.814L38.3237 78.001C39.5006 77.0568 39.8125 75.3952 39.0581 74.0885L37.9523 72.1731L31.3923 60.811L30.4163 59.1204C29.8703 58.1746 28.8612 57.5921 27.7692 57.5921L25.817 57.5921Z" fill="var(--fill-0, #FE6347)"/>
</g>
</g>
</svg>
